<svg width="335" height="335" viewBox="0 0 335 335" fill="none" xmlns="http://www.w3.org/2000/svg">
<g clip-path="url(#clip0_4_10)">
<path d="M251.25 312.559L167.5 167.5ZM167.5 167.5L83.75 22.4408ZM167.5 167.5L312.56 251.25ZM167.5 167.5L22.4411 83.7502ZM167.5 167.5H335ZM167.5 167.5H0ZM167.5 167.5L312.56 83.7502ZM167.5 167.5L22.4411 251.25ZM167.5 167.5L251.251 22.4412ZM167.5 167.5L83.7507 312.56ZM167.5 167.5L167.501 0ZM167.5 167.5L167.501 335Z" fill="black"/>
<path d="M251.25 312.559L167.5 167.5M167.5 167.5L83.75 22.4408M167.5 167.5L312.56 251.25M167.5 167.5L22.4411 83.7502M167.5 167.5H335M167.5 167.5H0M167.5 167.5L312.56 83.7502M167.5 167.5L22.4411 251.25M167.5 167.5L251.251 22.4412M167.5 167.5L83.7507 312.56M167.5 167.5L167.501 0M167.5 167.5L167.501 335" stroke="#151519" stroke-width="16" stroke-miterlimit="1"/>
</g>
<defs>
<clipPath id="clip0_4_10">
<rect width="335" height="335" fill="white"/>
</clipPath>
</defs>
</svg>
