<svg xmlns="http://www.w3.org/2000/svg" xmlns:xlink="http://www.w3.org/1999/xlink" id="Слой_1" x="0px" y="0px" viewBox="0 0 832 832" style="enable-background:new 0 0 832 832;" xml:space="preserve"><style type="text/css"> .st0{fill:#151519;} </style><polygon class="st0" points="400,832 400,475.7 221.9,784.3 194.1,768.3 372.3,459.7 63.7,637.9 47.7,610.1 356.3,432 0,432 0,400 356.3,400 47.7,221.9 63.7,194.1 372.3,372.3 194.1,63.7 221.9,47.7 400,356.3 400,0 432,0 432,356.3 610.1,47.7 637.9,63.7 459.7,372.3 768.3,194.1 784.3,221.9 475.7,400 832,400 832,432 475.7,432 784.3,610.1 768.3,637.9 459.7,459.7 637.9,768.3 610.1,784.3 432,475.7 432,832 "/></svg>